<?xml version="1.0" encoding="utf-8"?>
<!-- Generator: Adobe Illustrator 27.7.0, SVG Export Plug-In . SVG Version: 6.00 Build 0)  -->
<svg version="1.1" id="Layer_1" xmlns="http://www.w3.org/2000/svg" xmlns:xlink="http://www.w3.org/1999/xlink" x="0px" y="0px"
	 viewBox="0 0 838.6 471.7" style="enable-background:new 0 0 838.6 471.7;" xml:space="preserve">
<style type="text/css">
	.st0{fill:#00ED5A;}
</style>
<g>
	<g>
		<path class="st0" d="M430.6,267.1c-1.4-3.2-1.5-6.3,0.3-9.7c-3.1,1.7-6.1,2-9.4,1c0.9,4.2,0.1,7.8-3.2,10.5s-7,2.5-10.4,1.2
			c0.1,2.1,0.5,4.4,0.2,6.5c-0.3,2.4-1.8,4.2-4,5.4c-3.8,2-8.3,1.4-11.2-1.5c-2.8-2.8-3-7.3-0.4-11.9c-4.9,2.6-9.5,2.7-13.1-1.7
			c-2.4-3-2.4-6.8-0.3-10c2.8-4.6,7.1-5,12-3.3c-1.5-3.2-1.6-6.2-0.2-9.4c-5.2,1.7-9.6,1-12.3-3.9c-1.8-3.2-1.7-6.6,0.6-9.7
			c3-4,6.9-4.6,11.6-2.9c-1.1-3.2-1.4-6.3,0.4-9.4c-5.1,1.7-9.6,1.5-12.4-3.6c-2-3.5-1.2-8,1.4-10.7c2.8-2.9,6.8-3.2,11.9-0.9
			c-2.6-5.6-2.1-10.4,3.5-13.6c3.2-1.9,7.7-0.9,10.3,1.7c2.7,2.7,3.2,6.8,1.2,10.7c3.9-1.3,7.7-1.7,11,1.1c3.2,2.7,4.3,6.2,3.1,10.5
			c3.2-0.8,6.2-0.7,9.2,0.9c-1.3-3.4-1.4-6.5,0.3-9.8c-2.6,1.1-5,1.5-7.6,0.7c-2.6-0.8-4.4-2.4-5.5-4.9c-1.7-4-0.4-8.8,2.8-11.1
			c3.5-2.5,8.1-2.3,11.3,0.3c3.5,2.9,4.3,7,2.2,11.4c1.7-0.3,3.4-0.8,5.1-0.7c1.7,0.1,3.4,0.7,5.1,1.1c-1.2-2-1.6-4.3-1.1-6.8
			c0.6-2.5,2.1-4.3,4.3-5.6c3.3-1.9,7.9-1.1,10.8,1.9c2.5,2.6,2.9,7.1,0.9,10.4c-2.4,4-6.2,4.9-12.6,2.9c2,3.1,2,6.3,0.7,9.8
			c3.5-1.4,6.8-1.3,9.9,0.6c-1.3-2.2-1.8-4.5-1.2-7c0.6-2.5,2-4.4,4.2-5.7c3.5-2.1,8-1.2,11,2c2.6,2.7,2.9,7.3,0.8,10.5
			c-2.7,4.1-6.2,4.8-12.5,2.5c2.4,4.3,2.1,8.2-0.9,11.8c-2.7,3.1-6.9,3.8-12,1.8c2.2,3.7,2.4,7.3,0.1,11.1c4.4-1.6,8.5-1.9,11.8,1.8
			c3.2,3.6,3.2,7.6,1.3,11.9c2.3-1.4,4.7-1.8,7.3-1.1c2.6,0.7,4.4,2.4,5.6,4.8c1.7,3.5,0.6,8.3-2.2,10.5c-3.4,2.6-8.3,2.6-11.3,0.2
			c-3.5-3-4.2-7.1-1.8-11.9c-3.3,1.6-6.5,1.9-10,0.5c1.5,3.5,1.1,6.6-0.3,9.8c6.1-2,10-1,12.3,2.8c2.1,3.6,1.7,8.4-1,10.9
			c-3,2.8-8.3,3.2-11.6,1c-3.7-2.6-4.5-6.8-2.3-12.1c-3.4,1.7-6.8,1.9-10.6,0.2c1.4,2.4,1.7,4.7,1.1,7.1c-0.7,2.4-1.9,4.2-4.2,5.5
			c-3.1,1.7-8.4,1.6-11.3-1.7c-2.4-2.7-3-7.3-1.1-10.7C420.5,266.6,423.7,265.6,430.6,267.1z M403.5,257.5c-3.2,1-6,0.9-9.1-0.4
			c1.8,3.6,1.4,6.8-0.4,10c3.2-2.1,6.6-2.1,10.3-0.5C402.5,263.5,402.6,260.7,403.5,257.5z M404.3,204.9c-3.7,1.8-7,1.6-10.6-0.5
			c2,3.5,2.5,6.6,0.9,9.5c2.9-0.1,5.8-0.2,8.6-0.3C402.5,211,402.5,208.1,404.3,204.9z M443.4,217.6c-3.3,1.4-6.3,1.1-8.9,0.1
			c0.4,2.6,0.8,5.2,1.2,7.9c1.1,0,2.5-0.1,3.8,0.1s2.6,0.8,4.1,1.2C442.2,224,442,221,443.4,217.6z M434.6,254
			c2.6-1.3,5.5-1.3,8.7-0.1c-1.3-3.4-1.2-6.4,0.5-9.6c-2.8,1.9-5.6,2-8.1,1.7C435.4,248.7,435,251.4,434.6,254z M402,232.5
			c-2.2-0.1-4.6-0.3-7-0.5c1.2,2.5,1.2,5.1,0.1,7.5c2.6-0.2,5-0.3,6.9-0.5C402.1,236.8,402,234.6,402,232.5z M409,246
			c-0.1,2-0.2,4.2-0.3,6.2c2.2-0.1,4.4-0.2,6.4-0.2c-0.1-1.9-0.2-3.9-0.3-5.8C413,246.2,411,246.1,409,246z M408.8,219.4
			c0.1,2,0.2,4,0.2,6.1c1.9-0.1,3.9-0.1,5.8-0.2c0.1-2,0.3-3.9,0.4-5.7C413.1,219.5,410.9,219.5,408.8,219.4z M427.6,238.1
			c0-1.5,0-3.1-0.1-4.4c-1.3-0.1-3-0.2-4.6-0.3c0,1.7,0.1,3.3,0.1,4.7C424.5,238.1,426.1,238.1,427.6,238.1z"/>
		<path class="st0" d="M458.8,241.9c-3.1-3.2-2.9-9.5,0.4-12.8c3.2-3.2,9.6-3,13.1,0.6c3,3.1,2.9,9.3-0.2,12.4
			C468.5,245.7,462.4,245.6,458.8,241.9z"/>
		<path class="st0" d="M367.7,216.8c3.5-3.5,9.1-3.4,12.6,0.4c3.1,3.4,3.1,8.7-0.2,12c-3.4,3.5-9.3,3.3-12.8-0.2
			C364.2,226,364.5,220,367.7,216.8z"/>
		<path class="st0" d="M367.6,254.9c-3.2-3.1-3.3-8.8-0.2-12.2c3.2-3.4,9-3.9,12.6-0.1c3.4,3.5,3.4,8.5,0,12.3
			C376.9,258.2,371,258.1,367.6,254.9z"/>
		<path class="st0" d="M406.9,189.7c-3.2-3.3-3.1-9,0.2-12.3c3.3-3.3,9-3.3,12.2,0c3.4,3.5,3.4,8.9,0,12.3
			C416.1,193.1,410.2,193,406.9,189.7z"/>
		<path class="st0" d="M406.9,294.1c-3.2-3.2-3.1-8.9,0.1-12.1c3.4-3.4,8.8-3.3,12.3,0.1c3.2,3.2,3.4,9,0.4,12
			C416.3,297.5,410.3,297.5,406.9,294.1z"/>
		<path class="st0" d="M445.1,282.1c3.2,3.1,3.3,8.6,0.3,11.8c-3.3,3.4-9.3,3.5-12.7,0.2c-3.4-3.2-3.2-8.7,0.2-12.3
			C436.3,278.6,441.5,278.6,445.1,282.1z"/>
		<path class="st0" d="M472.3,229c-3.8-3.2-3.3-8.8-0.3-12c3.2-3.3,8.8-3.2,12.2,0c3.9,3.7,3.1,9.2,0.3,12
			C481.2,232.6,475.9,232.5,472.3,229z"/>
		<path class="st0" d="M432.9,177.5c3.6-3.4,9.1-3.2,12.3,0.3c3.2,3.4,3.1,8.8-0.2,12c-3.5,3.4-8.9,3.3-12.2-0.1
			C429,185.8,430,180,432.9,177.5z"/>
		<path class="st0" d="M484.4,242.8c3.4,3.4,3.4,8.8,0.1,12.1c-3.3,3.3-9,3.3-12.3,0c-3.3-3.3-3.2-8.8,0.2-12.2
			C475.8,239.3,481,239.3,484.4,242.8z"/>
		<path class="st0" d="M355,241.7c-3.4-3.4-3.3-8.5,0.3-12.1c3.1-3.1,8.3-3.1,11.5,0.1c3.6,3.5,3.7,8.6,0.2,12
			C363.7,245,358.3,245.1,355,241.7z"/>
		<path class="st0" d="M379.7,191.2c3.5,3.5,3.6,8.6,0.1,12.1c-3.3,3.3-8.6,3.2-12.1-0.2c-3.3-3.2-3-8.5,0.4-12
			C370.4,188.8,376.5,187.6,379.7,191.2z"/>
		<path class="st0" d="M392.4,281.2c3.7,3.9,3.7,8.6,0,12.1c-3.4,3.2-8.7,3-12-0.5c-3-3.2-2.8-8.8,0.6-11.9
			C384.4,277.8,389.3,277.9,392.4,281.2z"/>
		<path class="st0" d="M368.2,268.1c3.2-3.1,8.2-3,11.3,0.2c3.6,3.7,3.7,8.6,0.1,12.1c-3.4,3.3-8.7,3.3-12-0.2
			C364.5,277,364.8,271.5,368.2,268.1z"/>
		<path class="st0" d="M392.7,178.5c3.3,3.4,3.3,8.5-0.1,11.9c-3.4,3.4-8.7,3.3-12.2-0.2c-3.1-3.1-2.8-8.6,0.4-11.8
			C384.1,175.2,389.4,175.2,392.7,178.5z"/>
		<path class="st0" d="M431.8,294.9c3.5,3.3,3.7,8.4,0.4,11.9c-3,3.1-8.8,3.2-11.9,0.2c-3.2-3.1-3.3-8.6-0.1-12
			C423.3,291.7,428.4,291.6,431.8,294.9z"/>
		<path class="st0" d="M471.5,269.4c3.2-3.2,8.3-3.3,11.5-0.2c3.4,3.4,3.6,8.7,0.2,12c-3.2,3.2-8.5,3.1-11.9-0.2
			C468.4,278.1,468.5,272.5,471.5,269.4z"/>
		<path class="st0" d="M470.4,294.1c-3.2,3.1-8.7,3-12-0.3c-2.9-3-2.8-8.6,0.4-11.7c3.2-3.1,8.6-3.1,11.7,0.1
			C473.8,285.7,473.8,290.8,470.4,294.1z"/>
		<path class="st0" d="M420.2,176.6c-3.2-3.2-3.2-8.5,0-11.8c2.9-3,8.5-3.1,11.6-0.1c3.5,3.4,3.6,8.5,0.2,11.9
			C428.8,179.9,423.5,179.9,420.2,176.6z"/>
		<path class="st0" d="M471.7,202.4c-3.3-3.1-3.3-8.6,0-12.1c2.7-2.8,8.4-2.8,11.3,0.1c3.4,3.2,3.6,8.6,0.3,11.9
			C480.2,205.6,475.1,205.6,471.7,202.4z"/>
		<path class="st0" d="M367.1,204.4c3,3,3,8.4,0,11.4c-3.3,3.3-8.7,3.4-11.9,0.2c-3.1-3.1-3-8.8,0.2-12
			C358.3,201,363.9,201.2,367.1,204.4z"/>
		<path class="st0" d="M458.8,189.4c-3.3-3.2-3.2-8.4,0.2-11.9c2.8-2.9,8.3-2.8,11.4,0.2c3.2,3.1,3.3,8.3,0.4,11.4
			C467.5,192.7,462.3,192.8,458.8,189.4z"/>
		<path class="st0" d="M406.1,295c3.4,3.4,3.5,8.4,0.2,11.7c-2.9,3-8.7,3-11.8,0c-3.1-3.1-3.1-8.8,0.1-11.9
			C397.8,291.8,402.9,291.8,406.1,295z"/>
		<path class="st0" d="M366.7,255.6c3.3,3.4,3.3,8.4,0,11.7c-3.2,3.1-8.5,3.1-11.6,0.1c-3.3-3.2-3.1-8.7,0.4-12.2
			C358.4,252.3,363.6,252.5,366.7,255.6z"/>
		<path class="st0" d="M496.9,230.1c3.3,3.3,3.3,8.3,0,11.6c-3.2,3.3-8.3,3.2-11.7-0.2c-3-3-3-8.5-0.1-11.5
			C488.4,226.8,493.7,226.9,496.9,230.1z"/>
		<path class="st0" d="M406.1,176.7c-3.3,3.2-8.4,3.1-11.7-0.2c-3-3.1-2.9-8.9,0.3-11.9c3.1-2.9,8.5-2.6,11.6,0.5
			C409.4,168.4,409.3,173.6,406.1,176.7z"/>
		<path class="st0" d="M445.9,295.2c3.3-3.4,8.4-3.3,11.7,0c3.1,3.2,3.1,8.3,0,11.5c-3.1,3.1-8.5,3.1-11.7,0
			C442.8,303.5,442.8,298.3,445.9,295.2z"/>
		<path class="st0" d="M445.9,176.4c-3.2-3.2-3.1-8.4,0.2-11.6c3.1-3,8.3-2.9,11.4,0.2c3.2,3.2,3.1,8.4-0.1,11.6
			C454.2,179.8,449.2,179.7,445.9,176.4z"/>
		<path class="st0" d="M485.4,204.4c3.1-3.1,8.4-3.1,11.5,0.1c3.2,3.2,3.1,8.3-0.2,11.6c-3,3-8.2,2.9-11.2-0.1
			C482.4,212.8,482.4,207.5,485.4,204.4z"/>
		<path class="st0" d="M485.3,267.2c-3.1-3.1-3.1-8.4,0-11.4c3.2-3.1,8.5-3.1,11.7,0.1c3.1,3.1,3,8.4-0.3,11.5
			C493.6,270.4,488.4,270.3,485.3,267.2z"/>
		<path class="st0" d="M342.3,254.2c-3.1-3.2-2.9-8.4,0.3-11.5c3-2.9,8.3-2.8,11.1,0.3c3.1,3.3,3.1,8.4,0.1,11.4
			C350.7,257.4,345.4,257.4,342.3,254.2z"/>
		<path class="st0" d="M354,217.6c3.2,3,2.8,8.4-0.3,11.3c-3.3,3.1-8.7,2.7-11.6-0.6c-2.8-3.3-2.4-8.5,0.9-11.4
			C346,214,351.2,214.4,354,217.6z"/>
		<path class="st0" d="M419.1,308.3c2.9,2.9,2.8,8.1-0.2,11.1c-2.9,2.9-8.3,2.9-11.3-0.1c-2.9-2.8-3-8.1-0.1-11
			C410.6,305.1,415.9,305.1,419.1,308.3z"/>
		<path class="st0" d="M418.7,163.6c-3.1,3-8,2.9-11.1-0.1c-2.9-2.9-2.8-8.3,0.2-11.2c3.1-3,8.2-2.9,11.2,0.2
			C422,155.4,421.8,160.6,418.7,163.6z"/>
		<path class="st0" d="M444.6,152.5c2.9,3,2.9,8-0.1,10.9c-3.1,3.1-8.1,3.1-11.2,0c-2.9-2.9-2.9-8.1-0.1-11
			C436.5,149.3,441.5,149.3,444.6,152.5z"/>
		<path class="st0" d="M433.4,308.2c3.3-3.1,8.3-3,11.3,0.1c3,3.1,2.8,8.1-0.3,11c-3.1,2.9-8.4,2.8-11.2-0.3
			C430.4,316.1,430.5,310.9,433.4,308.2z"/>
		<path class="st0" d="M368.4,294.4c3.1-3,8.3-3,11.2,0.1c3,3.1,2.9,8-0.2,11c-3,2.9-8.1,2.9-11.1-0.1
			C365.4,302.5,365.4,297.3,368.4,294.4z"/>
		<path class="st0" d="M366.7,292.5c-3.1,3.1-8.2,3.1-11.2,0.1c-2.9-2.9-2.9-8.1,0-11c3.1-3,8.1-3.1,11.1-0.1
			C369.7,284.6,369.7,289.5,366.7,292.5z"/>
		<path class="st0" d="M379.5,166.3c3,3,3,7.8-0.1,10.9c-2.9,3-8.1,3-11.1,0c-2.8-2.9-2.9-8-0.1-10.9
			C371.4,163.1,376.3,163.1,379.5,166.3z"/>
		<path class="st0" d="M355.5,179c3.1-3,8.2-3,11.2,0.1c2.9,3,2.8,8-0.3,11c-2.9,2.8-8,2.7-11-0.2C352.6,187,352.6,181.9,355.5,179z
			"/>
		<path class="st0" d="M471.9,165.3c3-3,8-3,10.9-0.1c3.1,3.1,3.1,8-0.1,11.2c-2.8,2.9-7.9,2.8-10.8-0.1
			C468.9,173.3,468.9,168.3,471.9,165.3z"/>
		<path class="st0" d="M471.9,295.3c2.9-2.9,8-3,10.8-0.1c3.2,3.2,3.2,8.1,0.1,11.2c-3,3-8,2.9-11-0.1
			C468.9,303.3,468.9,298.3,471.9,295.3z"/>
		<path class="st0" d="M382.2,308.2c3-3,8-2.9,11.1,0.1c2.9,3,2.8,8-0.2,11c-2.8,2.8-7.9,2.9-10.7,0.1
			C379.2,316.3,379.1,311.2,382.2,308.2z"/>
		<path class="st0" d="M382.1,163.4c-3-3-2.9-8.1,0.2-11.1c2.9-2.8,8-2.8,10.8,0.1c3,3,3,8.1-0.1,11.1
			C390.1,166.4,385,166.3,382.1,163.4z"/>
		<path class="st0" d="M484.8,178c3-2.9,8-2.9,11,0.1c3,3.1,2.9,8.1-0.1,11.1c-2.9,2.9-8.1,2.8-11-0.2
			C481.7,186,481.8,181,484.8,178z"/>
		<path class="st0" d="M484.6,293.4c-2.9-2.8-2.8-7.9,0-10.8c2.9-3,7.9-3.1,10.8-0.3c3.2,3.1,3.3,8.1,0.2,11.2
			C492.8,296.5,487.8,296.5,484.6,293.4z"/>
		<path class="st0" d="M340.8,241.3c-2.9,2.9-7.9,2.9-10.9,0.1c-2.9-2.9-3-8-0.1-11c2.9-2.9,8-3,11-0.1
			C343.8,233.2,343.8,238.3,340.8,241.3z"/>
		<path class="st0" d="M342.8,202.9c-2.8-2.7-2.9-8.1-0.2-10.9c2.8-2.9,8.1-3,11-0.1c2.9,2.8,3,8,0.2,10.9
			C350.9,205.6,345.7,205.7,342.8,202.9z"/>
		<path class="st0" d="M498.5,217.5c2.9-2.9,8.2-2.9,11,0c2.8,2.9,2.8,8.1,0,10.9c-3,2.9-8.1,2.9-11,0
			C495.7,225.6,495.6,220.3,498.5,217.5z"/>
		<path class="st0" d="M498.5,243.2c2.9-2.8,8.3-2.8,11,0.1c2.8,3,2.7,8.2-0.1,10.9c-3,2.9-8.2,2.8-11-0.1
			C495.6,251.1,495.7,245.9,498.5,243.2z"/>
		<path class="st0" d="M353.7,279.8c-2.9,2.9-8.2,2.9-11,0c-2.8-2.9-2.8-8.2,0-10.9c3-2.9,8.1-2.8,11,0.1
			C356.5,271.7,356.5,277,353.7,279.8z"/>
		<path class="st0" d="M459.1,319c-2.8-2.8-2.8-7.8,0.1-10.7c2.9-2.9,7.8-2.9,10.7-0.1c3.1,3.1,3.1,7.8,0.1,10.9
			C467,322.1,462.2,322.1,459.1,319z"/>
		<path class="st0" d="M459.4,152.5c3.3-2.9,7.9-2.8,10.7,0.2c2.8,3.2,2.7,8.1-0.3,10.8c-3.2,2.9-8.2,2.7-10.9-0.4
			C456.1,159.8,456.3,155.2,459.4,152.5z"/>
		<path class="st0" d="M498.7,192c3.2-3,7.7-3,10.7,0.1c3,3.1,2.9,7.8-0.2,10.7c-3,2.9-7.7,2.8-10.6-0.2
			C495.7,199.6,495.7,194.9,498.7,192z"/>
		<path class="st0" d="M498.6,279.6c-2.9-2.8-3-7.5-0.2-10.5c2.8-3,7.7-3.2,10.6-0.3c3.2,3.1,3.3,7.7,0.3,10.8
			C506.4,282.6,501.8,282.6,498.6,279.6z"/>
		<path class="st0" d="M420.7,331.8c-2.9-3-2.9-7.6,0.1-10.6c3-3,7.7-2.9,10.7,0.2c2.9,3,2.8,7.6-0.2,10.6
			C428.3,334.8,423.7,334.8,420.7,331.8z"/>
		<path class="st0" d="M340.6,204.8c3,3,3,7.6,0,10.7c-2.9,2.9-7.6,2.9-10.6-0.1c-2.9-2.9-2.9-7.6,0-10.6
			C333.1,201.9,337.7,201.9,340.6,204.8z"/>
		<path class="st0" d="M330.1,266.8c-3-3-3-7.6,0-10.6c3-3,7.6-3,10.7,0c2.9,3,2.9,7.6-0.1,10.6C337.7,269.8,333,269.7,330.1,266.8z
			"/>
		<path class="st0" d="M420.8,150.4c-3-3-3-7.6,0-10.6c3-3,7.6-3,10.6-0.1c3.1,3,3.1,7.6,0,10.7
			C428.4,153.4,423.7,153.4,420.8,150.4z"/>
		<path class="st0" d="M395.2,331.8c-2.9-2.9-3-7.6,0-10.6c2.9-2.9,7.5-2.9,10.5,0c2.9,2.8,3,7.6,0.1,10.5
			C402.9,334.7,398.2,334.7,395.2,331.8z"/>
		<path class="st0" d="M395.2,150.4c-2.9-2.9-2.9-7.6,0-10.6c2.9-2.9,7.6-2.9,10.5,0c2.9,2.9,2.9,7.6,0.1,10.5
			C402.8,153.3,398.1,153.3,395.2,150.4z"/>
		<path class="st0" d="M511.5,241c-2.8-2.9-2.8-7.6,0.1-10.5c2.8-2.9,7.6-2.8,10.5,0c2.9,2.9,2.9,7.6,0,10.5
			C519.1,244,514.4,244,511.5,241z"/>
		<path class="st0" d="M457,139.9c2.8,2.8,2.8,7.6,0,10.4c-3,2.9-7.7,2.9-10.5,0c-2.8-2.8-2.7-7.7,0.2-10.5
			C449.5,137,454.2,137.1,457,139.9z"/>
		<path class="st0" d="M456.9,331.8c-3.1,2.9-7.6,2.7-10.6-0.3c-2.7-2.8-2.5-7.6,0.4-10.3c2.9-2.7,7.5-2.6,10.2,0.2
			C459.8,324.4,459.8,329.1,456.9,331.8z"/>
		<path class="st0" d="M343.1,166.5c2.9-2.9,7.4-2.9,10.3,0.1c2.8,2.8,2.8,7.2,0,10.1c-2.9,3-7.5,3-10.4,0.1
			C340.2,173.9,340.3,169.4,343.1,166.5z"/>
		<path class="st0" d="M522,256.5c2.8,2.9,2.8,7.4-0.1,10.1c-3,2.9-7.4,2.7-10.4-0.4c-2.6-2.7-2.4-7.4,0.4-10.1
			C514.7,253.4,519.1,253.6,522,256.5z"/>
		<path class="st0" d="M343.2,294.8c2.8-2.8,7.3-2.7,10.1,0.1c2.8,2.8,2.7,7.5,0,10.2c-2.9,2.9-7.4,2.9-10.3,0
			C340.2,302.2,340.3,297.6,343.2,294.8z"/>
		<path class="st0" d="M511.9,205c2.9-2.9,7.3-2.8,10.2,0.3c2.7,2.8,2.6,7.3-0.2,10c-2.9,2.9-7.5,2.8-10.3,0
			C508.9,212.4,509,207.8,511.9,205z"/>
		<path class="st0" d="M366,164c-2.9,2.9-7.4,2.7-10.3-0.3c-2.7-2.8-2.6-7.4,0.4-10.2c2.8-2.7,7.3-2.6,10.2,0.4
			C368.9,156.7,368.8,161.3,366,164z"/>
		<path class="st0" d="M356,317.9c-2.8-2.7-2.8-7.4,0-10.2s7.3-2.8,10.2,0c2.7,2.7,2.7,7.6,0,10.2
			C363.3,320.7,358.8,320.7,356,317.9z"/>
		<path class="st0" d="M317.5,228c-2.7-2.7-2.7-7.3,0-10c2.7-2.7,7.4-2.7,10.1,0c2.8,2.8,2.8,7.2,0.1,10
			C324.8,230.8,320.3,230.8,317.5,228z"/>
		<path class="st0" d="M330.3,189.5c-2.7-2.7-2.7-7.3,0-10c2.7-2.7,7.3-2.7,10-0.2c2.9,2.8,3,7.3,0.2,10.2
			C337.7,192.3,333.2,192.4,330.3,189.5z"/>
		<path class="st0" d="M317.5,253.6c-2.7-2.7-2.7-7.4,0-10c2.7-2.7,7.4-2.7,10.1,0c2.8,2.8,2.8,7.3,0,10
			C324.8,256.5,320.3,256.5,317.5,253.6z"/>
		<path class="st0" d="M340.4,292.2c-2.8,2.8-7.3,2.8-10.2,0c-2.7-2.6-2.7-7.3,0-9.9c2.7-2.7,7.4-2.8,10.1-0.1
			C343.1,284.8,343.1,289.4,340.4,292.2z"/>
		<path class="st0" d="M379.8,150.1c-2.7,2.7-7.2,2.8-10,0c-2.7-2.6-2.8-7.2-0.2-9.8c2.7-2.7,7.4-2.9,10.1-0.3
			C382.4,142.7,382.5,147.4,379.8,150.1z"/>
		<path class="st0" d="M379.7,331.6c-2.7,2.7-7.3,2.6-10.1-0.1c-2.6-2.6-2.7-7.3-0.1-9.8c2.8-2.7,7.5-2.8,10.1-0.1
			C382.5,324.4,382.5,328.9,379.7,331.6z"/>
		<path class="st0" d="M495,308.7c2.8,2.7,2.9,7.3,0.2,10c-2.6,2.6-7.2,2.6-9.9,0c-2.7-2.6-2.7-7.3-0.1-9.9
			C487.8,306.2,492.5,306.2,495,308.7z"/>
		<path class="st0" d="M495.3,153.2c2.6,2.8,2.5,7.5-0.2,10c-2.8,2.6-7.3,2.4-10-0.4c-2.5-2.7-2.4-7.4,0.2-9.8
			C488.2,150.3,492.7,150.5,495.3,153.2z"/>
		<path class="st0" d="M508,296c2.6,2.7,2.6,7.3,0,10c-2.6,2.6-7.3,2.6-10-0.1c-2.6-2.6-2.6-7.2,0-9.8
			C500.6,293.4,505.3,293.3,508,296z"/>
		<path class="st0" d="M507.9,165.8c2.7,2.7,2.7,7.4,0,10.1c-2.6,2.5-7.2,2.5-9.8-0.2c-2.6-2.5-2.7-7.2-0.1-9.8
			C500.6,163.3,505.3,163.2,507.9,165.8z"/>
		<path class="st0" d="M418.1,127.3c2.8,2.7,2.8,7.1,0.2,9.9c-2.6,2.7-7.3,2.7-10.1,0c-2.6-2.5-2.6-7.2,0.1-9.8
			C410.9,124.8,415.5,124.8,418.1,127.3z"/>
		<path class="st0" d="M418.2,344.4c-2.7,2.7-7.4,2.6-10.1-0.2c-2.5-2.6-2.4-7.2,0.1-9.7c2.7-2.6,7.4-2.6,9.9,0
			C420.9,337.3,420.9,341.7,418.2,344.4z"/>
		<path class="st0" d="M444,334.8c2.6,2.8,2.5,7.1-0.2,9.7c-2.8,2.7-7.2,2.5-10-0.4c-2.4-2.5-2.3-7.2,0.4-9.6
			C436.9,331.8,441.3,332,444,334.8z"/>
		<path class="st0" d="M443.7,127.4c2.8,2.7,2.8,7.1,0.1,9.9c-2.6,2.6-7.2,2.6-9.9,0c-2.6-2.6-2.6-7.1,0.1-9.8
			C436.6,124.8,441.1,124.8,443.7,127.4z"/>
		<path class="st0" d="M472.4,140.4c2.7-2.7,7.2-2.7,9.8-0.1c2.8,2.7,2.8,7,0.1,9.7c-2.7,2.7-7.1,2.8-9.8,0.1
			C469.8,147.4,469.8,143,472.4,140.4z"/>
		<path class="st0" d="M472.5,321.8c2.7-2.6,7.2-2.7,9.8-0.1c2.7,2.7,2.8,7,0.1,9.7c-2.7,2.7-7.1,2.7-9.8,0.1
			C469.8,328.8,469.8,324.4,472.5,321.8z"/>
		<path class="st0" d="M327.4,279.2c-2.7,2.7-7.1,2.6-9.7-0.1c-2.7-2.7-2.7-7,0-9.6c2.7-2.6,7.2-2.6,9.8,0
			C330.1,272.3,330.1,276.5,327.4,279.2z"/>
		<path class="st0" d="M511.8,282.4c2.7-2.7,7.2-2.8,9.8-0.2c2.7,2.7,2.8,7,0.1,9.7c-2.7,2.7-7.1,2.7-9.7,0
			C509.3,289.4,509.2,285.1,511.8,282.4z"/>
		<path class="st0" d="M511.8,179.8c2.6-2.7,7.1-2.8,9.8-0.2c2.8,2.7,2.8,7,0.1,9.7c-2.7,2.7-7.1,2.7-9.7,0.1
			C509.3,186.8,509.2,182.4,511.8,179.8z"/>
		<path class="st0" d="M317.6,192.6c2.7-2.6,7.2-2.7,9.8-0.1c2.7,2.8,2.7,7,0,9.7c-2.7,2.7-7.1,2.6-9.7-0.1
			C315,199.5,315,195.2,317.6,192.6z"/>
		<path class="st0" d="M524.7,253.3c-2.5-2.6-2.5-6.8,0-9.3c2.7-2.7,7.1-2.8,9.8-0.1c2.8,2.8,2.8,6.9,0.1,9.7
			C531.7,256.3,527.5,256.2,524.7,253.3z"/>
		<path class="st0" d="M524.7,227.8c-2.6-2.7-2.6-6.9,0.1-9.6c2.6-2.6,7.2-2.5,9.8,0.1c2.7,2.7,2.6,7-0.2,9.7
			C531.7,230.6,527.3,230.5,524.7,227.8z"/>
		<path class="st0" d="M382.8,137.1c-2.5-2.5-2.5-7,0-9.5c2.6-2.6,7.2-2.6,9.8,0.1c2.5,2.6,2.5,6.8-0.2,9.5
			C389.8,139.7,385.5,139.7,382.8,137.1z"/>
		<path class="st0" d="M392.3,344.3c-2.6,2.5-6.9,2.5-9.5-0.1c-2.6-2.6-2.6-7.2,0-9.6c2.6-2.5,7.1-2.4,9.7,0.1
			C395.1,337.4,395,341.6,392.3,344.3z"/>
		<path class="st0" d="M459.9,137.1c-2.6-2.6-2.5-7.3,0.1-9.8c2.5-2.4,6.8-2.3,9.4,0.3c2.6,2.6,2.5,7-0.2,9.6
			C466.7,139.6,462.5,139.6,459.9,137.1z"/>
		<path class="st0" d="M469.4,344.1c-2.5,2.6-6.8,2.6-9.4,0c-2.5-2.5-2.5-7.1,0-9.7c2.4-2.5,6.7-2.5,9.3,0.1
			C472,337.1,472,341.4,469.4,344.1z"/>
		<path class="st0" d="M534.2,279c-2.7,2.6-6.8,2.5-9.4-0.2c-2.5-2.6-2.3-6.9,0.2-9.4c2.8-2.6,6.7-2.5,9.4,0.3
			C537,272.4,536.9,276.4,534.2,279z"/>
		<path class="st0" d="M314.5,231.2c2.7,2.6,2.6,6.8-0.1,9.4c-2.6,2.5-6.7,2.5-9.3-0.1c-2.5-2.5-2.5-6.9,0-9.4
			C307.6,228.4,311.7,228.5,314.5,231.2z"/>
		<path class="st0" d="M534.3,192.7c2.7,2.6,2.7,6.5,0,9.2c-2.6,2.7-6.7,2.7-9.4,0c-2.5-2.4-2.6-6.8,0-9.3
			C527.6,190,531.5,190,534.3,192.7z"/>
		<path class="st0" d="M305.2,256.7c2.6-2.6,6.5-2.5,9.1,0.2c2.5,2.5,2.4,6.8-0.1,9.2c-2.6,2.4-6.8,2.3-9.2-0.2
			C302.6,263.4,302.7,259.2,305.2,256.7z"/>
		<path class="st0" d="M305.3,205.4c2.6-2.5,6.5-2.4,9.1,0.3c2.4,2.5,2.3,6.7-0.1,9.1c-2.5,2.4-6.8,2.4-9.2,0
			C302.6,212.1,302.7,207.9,305.3,205.4z"/>
		<path class="st0" d="M395.8,124c-2.5-2.5-2.4-6.7,0.1-9.2c2.4-2.4,6.7-2.4,9.1,0.1c2.5,2.5,2.5,6.7,0,9.2
			C402.5,126.5,398.3,126.5,395.8,124z"/>
		<path class="st0" d="M395.9,347.6c2.4-2.4,6.7-2.4,9.1,0c2.5,2.5,2.6,6.7,0.1,9.2c-2.4,2.4-6.8,2.4-9.2,0
			C393.4,354.2,393.4,350,395.9,347.6z"/>
		<path class="st0" d="M421.6,347.5c2.5-2.4,6.6-2.4,9.1,0.1c2.4,2.4,2.4,6.8,0,9.1c-2.5,2.4-6.9,2.4-9.2,0
			C419,354.2,419.1,349.9,421.6,347.5z"/>
		<path class="st0" d="M421.5,114.8c2.5-2.5,6.7-2.4,9.2,0.1c2.3,2.4,2.3,6.8-0.1,9.1c-2.5,2.4-6.8,2.4-9.2-0.1
			C419.1,121.5,419.1,117.2,421.5,114.8z"/>
		<path class="st0" d="M326.2,175.3c-2.3,2.4-6.7,2.5-9.1,0.2c-2.4-2.3-2.5-6.7-0.2-9.1c2.3-2.5,6.8-2.5,9.2-0.1
			C328.6,168.5,328.6,172.8,326.2,175.3z"/>
		<path class="st0" d="M447.1,124c-2.3-2.4-2.3-6.8,0.1-9.1c2.5-2.4,6.9-2.4,9.2,0.1c2.3,2.5,2.2,6.8-0.2,9.1
			C453.8,126.4,449.4,126.4,447.1,124z"/>
		<path class="st0" d="M447.2,356.8c-2.4-2.4-2.4-6.8,0-9.1c2.4-2.4,6.9-2.4,9.2,0c2.3,2.4,2.3,6.7-0.1,9.1
			C453.9,359.1,449.5,359.1,447.2,356.8z"/>
		<path class="st0" d="M537.9,240.4c-2.4-2.3-2.4-6.8-0.1-9.1c2.4-2.4,6.7-2.5,9.1-0.1c2.5,2.4,2.5,6.8,0.1,9.2
			C544.6,242.7,540.3,242.7,537.9,240.4z"/>
		<path class="st0" d="M317.1,296.3c2.5-2.4,6.9-2.4,9.2,0.1c2.3,2.5,2.2,6.8-0.2,9.1c-2.4,2.3-6.8,2.3-9.1-0.1
			C314.7,303,314.7,298.6,317.1,296.3z"/>
		<path class="st0" d="M342.8,321.9c2.5-2.4,6.7-2.4,9,0c2.3,2.5,2.4,6.8,0,9.1c-2.4,2.4-6.8,2.4-9.1,0
			C340.3,328.6,340.3,324.3,342.8,321.9z"/>
		<path class="st0" d="M342.8,140.5c2.5-2.4,6.7-2.5,9,0c2.4,2.4,2.4,6.8,0.1,9.1c-2.3,2.4-6.8,2.4-9.1,0.1
			C340.3,147.2,340.3,142.9,342.8,140.5z"/>
		<path class="st0" d="M330,309c2.4-2.4,6.6-2.4,8.9,0c2.4,2.4,2.5,6.9,0.1,9.2c-2.4,2.4-6.8,2.3-9.1,0
			C327.5,315.7,327.5,311.4,330,309z"/>
		<path class="st0" d="M330,153.3c2.5-2.4,6.7-2.4,9,0c2.3,2.4,2.4,6.8,0.1,9.1c-2.4,2.4-6.8,2.4-9.1,0.1
			C327.5,160,327.5,155.7,330,153.3z"/>
		<path class="st0" d="M507.6,322.1c2.4,2.6,2.3,6.7-0.2,9c-2.5,2.3-6.7,2.2-8.9-0.2c-2.3-2.4-2.2-6.8,0.2-9
			C501.3,319.6,505.3,319.7,507.6,322.1z"/>
		<path class="st0" d="M507.6,140.7c2.4,2.6,2.3,6.7-0.1,9c-2.4,2.3-6.6,2.2-8.9-0.1c-2.3-2.4-2.3-6.8,0.2-9.1
			C501.2,138.2,505.3,138.2,507.6,140.7z"/>
		<path class="st0" d="M511.4,309.2c2.4-2.4,6.5-2.5,8.9-0.1c2.5,2.4,2.6,6.5,0.1,9c-2.3,2.4-6.7,2.4-9.1,0
			C509,315.9,509,311.6,511.4,309.2z"/>
		<path class="st0" d="M511.4,153.5c2.4-2.4,6.5-2.5,8.9-0.1c2.5,2.4,2.6,6.6,0.1,9c-2.3,2.4-6.7,2.4-9.1,0
			C509,160.1,509,155.9,511.4,153.5z"/>
		<path class="st0" d="M356.5,344.8c-2.3-2.3-2.4-6.5,0-8.9s6.5-2.5,8.9-0.2c2.5,2.4,2.6,6.5,0.2,9
			C363.3,347.1,358.9,347.2,356.5,344.8z"/>
		<path class="st0" d="M365.6,126.9c2.4,2.6,2.3,6.7-0.1,9c-2.5,2.3-6.8,2.2-9.1-0.2c-2.3-2.5-2.1-6.7,0.3-8.9
			C359.2,124.4,363.3,124.5,365.6,126.9z"/>
		<path class="st0" d="M538,265.8c-2.4-2.4-2.4-6.3,0.1-8.7c2.5-2.5,6.4-2.4,8.8,0.1c2.4,2.4,2.4,6.3-0.1,8.7
			C544.4,268.3,540.4,268.3,538,265.8z"/>
		<path class="st0" d="M538,205.8c2.5-2.5,6.3-2.4,8.8,0c2.4,2.4,2.4,6.3,0,8.7c-2.4,2.4-6.4,2.4-8.8-0.1
			C535.6,212.1,535.6,208.2,538,205.8z"/>
		<path class="st0" d="M485.8,343.7c-2.4-2.4-2.4-6.3,0-8.7c2.4-2.4,6.4-2.3,8.8,0c2.4,2.4,2.4,6.3,0,8.7
			C492.2,346.2,488.2,346.1,485.8,343.7z"/>
		<path class="st0" d="M485.8,136.6c-2.4-2.4-2.4-6.3,0-8.7c2.4-2.3,6.4-2.3,8.8,0.1c2.4,2.4,2.4,6.3,0,8.7
			C492.2,139.1,488.2,139.1,485.8,136.6z"/>
		<path class="st0" d="M525.3,176.1c-2.4-2.4-2.5-6.2-0.2-8.6c2.4-2.4,6.3-2.5,8.8-0.1c2.4,2.3,2.4,6.3,0.1,8.6
			C531.6,178.4,527.7,178.5,525.3,176.1z"/>
		<path class="st0" d="M525.3,304.3c-2.4-2.4-2.4-6.2-0.1-8.6c2.4-2.4,6.3-2.4,8.8,0c2.3,2.3,2.4,6.3,0,8.6
			C531.6,306.7,527.7,306.7,525.3,304.3z"/>
		<path class="st0" d="M304.5,187.9c-2.4-2.4-2.4-6.2-0.1-8.6c2.4-2.4,6.4-2.3,8.8,0.1c2.3,2.3,2.3,6.2,0.1,8.5
			C310.8,190.3,306.9,190.3,304.5,187.9z"/>
		<path class="st0" d="M304.5,292.4c-2.4-2.4-2.4-6.2-0.1-8.6c2.3-2.4,6.3-2.4,8.8,0c2.3,2.3,2.3,6.2,0.1,8.5
			C310.9,294.7,306.9,294.8,304.5,292.4z"/>
		<path class="st0" d="M301.2,244.5c2.3,2.3,2.3,6.1,0,8.5c-2.4,2.4-6.4,2.3-8.7-0.1c-2.3-2.4-2.2-6.2,0-8.5
			C294.8,242,298.8,242.1,301.2,244.5z"/>
		<path class="st0" d="M301.1,218.8c2.3,2.3,2.4,6.1,0.1,8.4c-2.3,2.4-6.3,2.4-8.7,0c-2.3-2.3-2.4-6.1-0.1-8.5
			C294.7,216.4,298.7,216.4,301.1,218.8z"/>
		<path class="st0" d="M378.2,114.5c2.3,2.3,2.2,6.2-0.2,8.4c-2.3,2.2-6.2,2.2-8.5-0.1c-2.3-2.3-2.3-6.2-0.1-8.5
			C371.8,112,375.8,112.1,378.2,114.5z"/>
		<path class="st0" d="M378.2,349.1c2.2,2.3,2.2,6-0.1,8.3c-2.3,2.3-6.3,2.3-8.6,0c-2.3-2.4-2.3-6.3,0.1-8.6
			C372,346.5,375.9,346.7,378.2,349.1z"/>
		<path class="st0" d="M481.7,348.1c2.3,2.2,2.3,5.9,0,8.3c-2.3,2.4-6.2,2.4-8.6,0c-2.3-2.3-2.3-6,0-8.4
			C475.4,345.7,479.2,345.7,481.7,348.1z"/>
		<path class="st0" d="M481.7,115.4c2.2,2.2,2.2,5.9-0.1,8.3c-2.3,2.3-6.3,2.3-8.6,0c-2.3-2.4-2.3-6.1,0.1-8.4
			C475.5,112.9,479.3,113,481.7,115.4z"/>
		<path class="st0" d="M409.1,360.9c2.2-2.2,6.1-2.2,8.3,0c2.3,2.3,2.3,6,0.1,8.3c-2.3,2.4-6,2.4-8.4,0
			C406.7,366.8,406.7,363.3,409.1,360.9z"/>
		<path class="st0" d="M434.8,360.8c2.2-2.2,6.1-2.1,8.3,0.1c2.2,2.2,2.2,6.1-0.1,8.3c-2.3,2.3-6,2.2-8.3-0.1
			C432.4,366.8,432.4,363.2,434.8,360.8z"/>
		<path class="st0" d="M409.1,102.5c2.3-2.2,6-2.2,8.3,0.1c2.2,2.2,2.2,6.2,0,8.3c-2.3,2.3-6.1,2.2-8.4-0.2
			C406.7,108.3,406.8,104.8,409.1,102.5z"/>
		<path class="st0" d="M538.4,283c2.2-2.2,6-2.1,8.2,0.1c2.3,2.3,2.2,6.2-0.2,8.5c-2.2,2.1-5.9,2-8.2-0.3
			C535.9,288.8,536,285.3,538.4,283z"/>
		<path class="st0" d="M538.3,180.4c2.2-2.2,6-2.2,8.2,0c2.3,2.2,2.2,6.2-0.1,8.5c-2.2,2.2-5.9,2.1-8.2-0.2
			C535.9,186.3,536,182.7,538.3,180.4z"/>
		<path class="st0" d="M434.8,102.5c2.2-2.2,6-2.1,8.2,0c2.3,2.3,2.2,6.2-0.1,8.5c-2.2,2.1-5.9,2.1-8.2-0.2
			C432.4,108.4,432.4,104.8,434.8,102.5z"/>
		<path class="st0" d="M291.9,271.1c2.2-2.2,6-2.2,8.1,0c2.3,2.3,2.2,6.1,0,8.3c-2.2,2.1-6,2.1-8.2-0.2
			C289.6,277,289.6,273.4,291.9,271.1z"/>
		<path class="st0" d="M291.9,200.5c-2.2-2.2-2.3-5.9-0.1-8.1c2.2-2.3,5.9-2.3,8.1-0.1c2.3,2.3,2.3,6,0.1,8.3
			C297.9,202.8,294.1,202.7,291.9,200.5z"/>
		<path class="st0" d="M559.4,252.8c-2.1,2.2-6,2.2-8.2,0c-2.2-2.2-2.2-5.9-0.1-8.2c2-2.1,5.8-2.1,8,0
			C561.4,246.7,561.5,250.6,559.4,252.8z"/>
		<path class="st0" d="M559.2,219c2.3,2.3,2.3,5.8,0.1,8.1c-2.1,2.2-5.9,2.1-8.2-0.1c-2.2-2.1-2.2-6,0.1-8.2
			C553.3,216.7,557,216.8,559.2,219z"/>
		<path class="st0" d="M390.6,370c-2.1,2.1-5.7,2.1-7.9,0c-2.2-2.2-2.2-5.9,0-8.2c2.1-2.1,5.7-2,7.9,0.2
			C392.8,364.2,392.8,367.8,390.6,370z"/>
		<path class="st0" d="M390.6,101.8c2.2,2.2,2.1,5.8-0.1,8c-2.1,2.1-5.8,2-7.9-0.1c-2.2-2.2-2.2-6,0.1-8.2
			C384.8,99.5,388.5,99.6,390.6,101.8z"/>
		<path class="st0" d="M317.6,330.4c-2.2-2.3-2.1-5.8,0.2-8c2.2-2.1,5.8-1.9,8,0.4c2.1,2.2,1.9,5.7-0.3,7.8
			C323.2,332.8,319.7,332.6,317.6,330.4z"/>
		<path class="st0" d="M338.5,335.6c2.2,2.2,2.1,5.7-0.1,7.8c-2.2,2.1-5.7,2.1-7.9,0c-2.3-2.2-2.2-5.9,0.1-8.1
			C332.7,333.2,336.3,333.4,338.5,335.6z"/>
		<path class="st0" d="M468.5,369c-2.2,2.2-5.7,2.2-7.9,0c-2.3-2.2-2.3-5.8,0-8.1c2.1-2.1,5.7-2,7.9,0.2
			C470.7,363.4,470.7,366.8,468.5,369z"/>
		<path class="st0" d="M338.4,136.3c-2.1,2.2-5.6,2.2-7.8,0.1c-2.3-2.2-2.3-5.8,0-8.1c2.1-2.1,5.7-2,7.8,0.2
			C340.6,130.6,340.6,134.1,338.4,136.3z"/>
		<path class="st0" d="M468.6,102.8c2.1,2.2,2.1,5.7-0.1,7.8c-2.2,2.2-5.8,2.1-8-0.1c-2.1-2.2-2.1-5.8,0.2-8
			C462.8,100.5,466.4,100.6,468.6,102.8z"/>
		<path class="st0" d="M325.6,141.3c2.1,2.2,2.1,5.7-0.1,7.8c-2.2,2.2-5.8,2.2-8-0.1c-2.2-2.2-2.1-5.8,0.2-8
			C319.8,139,323.5,139.1,325.6,141.3z"/>
		<path class="st0" d="M312.8,309.9c2.1,2.2,2.1,5.6-0.2,7.8c-2.1,2-5.5,2-7.6,0c-2.2-2.1-2.1-5.9,0-8
			C307,307.7,310.7,307.8,312.8,309.9z"/>
		<path class="st0" d="M559,201.4c-1.9,1.9-5.5,1.9-7.5-0.1c-2.1-2.1-2.1-5.9,0-8c1.9-1.9,5.7-1.8,7.7,0.2
			C561.3,195.7,561.2,199.2,559,201.4z"/>
		<path class="st0" d="M551.5,278.3c-2.1-2-2.1-5.8-0.1-7.9c1.9-2,5.8-1.9,7.8,0.1c2.1,2.1,2,5.6-0.2,7.9
			C557.1,280.3,553.5,280.3,551.5,278.3z"/>
		<path class="st0" d="M305,161.9c-2.1-2.1-2-5.8,0.1-7.9c1.9-1.9,5.7-1.8,7.7,0.1c2.2,2.2,2.1,5.8-0.3,8
			C310.4,164,306.9,163.9,305,161.9z"/>
		<path class="st0" d="M280.3,239.8c-2.1-2.1-2.1-5.8,0-7.9c1.9-1.9,5.6-1.9,7.7,0.1c2.2,2.1,2.1,5.7-0.2,8
			C285.8,241.8,282.3,241.8,280.3,239.8z"/>
		<path class="st0" d="M352.1,114.8c2,2.1,1.9,5.7-0.2,7.8c-2,1.9-5.7,1.9-7.6-0.1c-2-2-1.9-5.8,0.2-7.8
			C346.4,112.7,350.2,112.8,352.1,114.8z"/>
		<path class="st0" d="M352.1,349.3c2,2.1,2,5.6-0.1,7.8c-1.9,2-5.6,1.9-7.6-0.1c-2-2-1.9-5.8,0.1-7.8
			C346.3,347.3,350.2,347.3,352.1,349.3z"/>
		<path class="st0" d="M532.5,330.4c-1.9,1.9-5.7,1.9-7.7-0.1c-1.9-1.9-1.8-5.8,0.2-7.7c2-1.9,5.8-1.8,7.7,0.2
			C534.6,324.9,534.6,328.4,532.5,330.4z"/>
		<path class="st0" d="M532.6,141.3c2.1,2,2.1,5.4,0,7.6c-1.8,2-5.6,2-7.7,0.1c-1.9-1.8-1.9-5.6,0-7.7
			C526.8,139.3,530.6,139.3,532.6,141.3z"/>
		<path class="st0" d="M519.8,335.6c2,2,2,5.5-0.1,7.6c-1.9,2-5.7,2-7.7,0c-1.9-1.9-1.9-5.7,0.1-7.7
			C514,333.6,517.8,333.6,519.8,335.6z"/>
		<path class="st0" d="M519.8,128.5c2,2,2,5.5-0.1,7.6c-1.9,2-5.7,1.9-7.7,0c-1.9-1.9-1.9-5.7,0.1-7.7
			C514,126.5,517.8,126.5,519.8,128.5z"/>
		<path class="st0" d="M506.9,348.5c2,2,2,5.4-0.1,7.4c-2,2-5.6,2-7.7,0c-1.9-1.9-1.9-5.5,0.1-7.5
			C501.5,346.3,504.7,346.3,506.9,348.5z"/>
		<path class="st0" d="M506.9,123.1c-2,2.1-5.7,2.1-7.8,0c-1.9-1.9-1.8-5.4,0.1-7.4c2.1-2.2,5.4-2.2,7.7-0.1
			C508.9,117.7,508.9,121,506.9,123.1z"/>
		<path class="st0" d="M429.8,374.2c2,2,2,5.2,0.1,7.2c-2.1,2.1-5.6,2.2-7.7,0c-1.9-1.9-1.8-5.4,0.2-7.3
			C424.5,372,427.6,372,429.8,374.2z"/>
		<path class="st0" d="M286.9,258.7c2,2,2,5.2,0,7.2c-2.1,2.1-5.6,2.1-7.7,0c-1.9-1.9-1.8-5.4,0.2-7.3
			C281.6,256.5,284.7,256.5,286.9,258.7z"/>
		<path class="st0" d="M429.9,90.2c2,2,1.9,5.2-0.1,7.2c-2.1,2-5.5,2-7.6,0c-1.9-1.9-1.8-5.4,0.1-7.3
			C424.5,87.9,427.7,87.9,429.9,90.2z"/>
		<path class="st0" d="M299.8,297.2c2,2,2,5.2-0.1,7.2c-2.1,2.1-5.6,2.1-7.7-0.1c-1.8-1.9-1.7-5.3,0.1-7.2
			C294.4,295,297.5,295,299.8,297.2z"/>
		<path class="st0" d="M299.8,167.1c2,2,1.9,5.2-0.1,7.2c-2,2.1-5.5,2.1-7.6,0c-1.9-1.8-1.9-5.4,0.1-7.3
			C294.4,164.9,297.6,164.9,299.8,167.1z"/>
		<path class="st0" d="M286.9,212.9c-2,2-5.5,2-7.6,0c-1.9-1.9-1.8-5.4,0.1-7.3c2.2-2.2,5.4-2.2,7.6,0.1
			C289,207.6,288.9,210.8,286.9,212.9z"/>
		<path class="st0" d="M546.2,155.2c2,2,2,5.3-0.1,7.3c-2,1.9-5.4,2-7.3,0.1c-2-2-2-5.4,0-7.4C541,153,544,153.1,546.2,155.2z"/>
		<path class="st0" d="M546.3,309.2c1.9,1.9,1.9,5.2-0.1,7.2c-2,2-5.4,2-7.4,0c-2-2-1.9-5.4,0.1-7.4
			C541,306.9,544.1,307,546.3,309.2z"/>
		<path class="st0" d="M494,103c1.9,2,1.9,5.4-0.1,7.3c-2,2-5.5,1.9-7.4-0.2c-1.9-2-1.8-5.4,0.2-7.3C488.7,100.9,492,101,494,103z"
			/>
		<path class="st0" d="M571.8,232.2c1.9,2,1.9,5.4-0.1,7.3c-2,2-5.5,1.9-7.4-0.1c-1.9-2-1.8-5.4,0.2-7.3
			C566.6,230.1,569.9,230.2,571.8,232.2z"/>
		<path class="st0" d="M493.9,361.3c2,2,2,5.3,0.1,7.3c-1.9,2-5.4,2-7.4,0c-1.9-2-1.9-5.3,0.1-7.3
			C488.6,359.4,491.9,359.3,493.9,361.3z"/>
		<path class="st0" d="M364.7,362.3c1.9,1.9,1.9,5.4-0.1,7.3s-5.5,1.8-7.3-0.1c-1.9-2-1.8-5.4,0.1-7.3
			C359.4,360.2,362.7,360.3,364.7,362.3z"/>
		<path class="st0" d="M455.3,374.1c2,2,2,5.3,0.1,7.3c-1.8,1.9-5.3,1.9-7.2,0.1c-2-1.9-1.9-5.5,0-7.5
			C450.1,372.1,453.4,372.2,455.3,374.1z"/>
		<path class="st0" d="M448.3,90c1.9-1.9,5.2-1.9,7.1,0.1c2,2,2,5.3,0,7.3c-1.9,1.9-5.4,1.9-7.2,0.1C446.2,95.5,446.3,92,448.3,90z"
			/>
		<path class="st0" d="M403.2,89.2c2,2,2,5.2-0.1,7.2c-1.9,1.9-5.4,1.9-7.2,0.1c-1.9-1.9-1.9-5.4,0-7.3
			C397.9,87.2,401.2,87.2,403.2,89.2z"/>
		<path class="st0" d="M396,375c1.8-1.9,5.1-2,7-0.1c2.1,2,2.1,5.5,0.1,7.4c-1.9,1.9-5.4,1.9-7.2,0C394,380.5,394.1,377,396,375z"/>
		<path class="st0" d="M558.9,296.3c1.9,1.9,1.9,5.3-0.1,7.3c-1.9,1.9-5.3,1.9-7.2,0c-1.9-1.9-1.9-5.4,0.1-7.3
			C553.7,294.4,557,294.4,558.9,296.3z"/>
		<path class="st0" d="M357.4,102c1.8-1.8,5.3-1.8,7.2,0c1.8,1.8,1.9,5.4,0.1,7.2c-1.8,1.9-5.5,2-7.3,0.1
			C355.5,107.5,355.5,103.9,357.4,102z"/>
		<path class="st0" d="M559,168.1c1.9,2,1.8,5.4-0.2,7.3c-1.9,1.8-5.3,1.8-7.2-0.1c-1.8-1.9-1.8-5.3,0.1-7.2
			C553.6,166.1,557.1,166.1,559,168.1z"/>
		<path class="st0" d="M564.7,206.5c1.9-1.9,5.1-1.9,7,0.1c2,2,2,5.2-0.1,7.2c-1.9,1.9-5.3,1.8-7.1-0.2
			C562.6,211.6,562.7,208.4,564.7,206.5z"/>
		<path class="st0" d="M571.7,258c2,2.1,1.9,5.3-0.2,7.2c-1.9,1.8-5.2,1.7-7-0.2c-1.9-2-1.8-5.4,0.3-7.2
			C566.8,255.9,569.9,256,571.7,258z"/>
		<path class="st0" d="M279.7,284.5c2-2,4.9-1.9,6.9,0.1c2,2,2,5,0,7c-1.9,1.9-5.1,1.9-7,0C277.6,289.6,277.7,286.5,279.7,284.5z"/>
		<path class="st0" d="M279.7,180c2-2,4.9-1.9,6.9,0.1c2,2,2,5,0,7.1c-1.9,1.9-5.1,1.9-7,0C277.6,185.1,277.7,182.1,279.7,180z"/>
		<path class="st0" d="M370.5,96.4c-2-1.9-2-5,0-6.9c1.9-1.9,5-1.9,6.8,0c1.9,1.9,1.9,4.9,0,6.8C375.5,98.2,372.3,98.2,370.5,96.4z"
			/>
		<path class="st0" d="M377.3,382.1c-1.8,1.9-5,2-6.8,0.1c-2-1.9-2-5,0-7c1.9-1.9,4.9-1.9,6.8,0
			C379.2,377.2,379.2,380.2,377.3,382.1z"/>
		<path class="st0" d="M480.9,381.2c-1.8,1.9-5,1.9-6.8,0.1c-1.9-1.9-1.9-4.9-0.1-6.8c1.8-1.9,5-1.9,6.8-0.1
			C482.7,376.2,482.7,379.3,480.9,381.2z"/>
		<path class="st0" d="M266.9,246.3c1.8-1.9,5-1.9,6.8-0.1c1.8,1.8,1.8,4.9,0,6.7c-1.7,1.8-4.9,1.9-6.7,0.2
			C265.1,251.3,265,248.2,266.9,246.3z"/>
		<path class="st0" d="M266.9,218.8c1.8-1.9,5-1.9,6.8-0.1c1.8,1.8,1.8,4.9,0.1,6.7c-1.7,1.8-4.9,1.9-6.7,0.2
			C265.1,223.8,265,220.7,266.9,218.8z"/>
		<path class="st0" d="M474,90.5c1.8-1.9,5-1.9,6.8,0c1.8,1.9,1.8,4.9,0,6.7c-1.8,1.8-4.9,1.9-6.7,0.1
			C472.2,95.5,472.1,92.3,474,90.5z"/>
		<path class="st0" d="M305.5,336.1c1.9-1.9,4.8-1.9,6.7,0c1.8,1.9,1.8,4.9-0.1,6.7c-1.8,1.8-4.8,1.8-6.6,0
			C303.6,340.9,303.6,337.9,305.5,336.1z"/>
		<path class="st0" d="M324.9,355.5c-1.8,1.8-4.8,1.8-6.6,0c-1.9-1.9-1.9-4.8,0.1-6.6c1.9-1.8,4.7-1.8,6.5,0.1
			C326.8,350.8,326.8,353.7,324.9,355.5z"/>
		<path class="st0" d="M564.8,290.4c-1.9-1.9-1.8-4.8,0.2-6.6c1.9-1.8,4.7-1.7,6.5,0.2c1.8,1.9,1.8,4.7-0.1,6.5
			C569.5,292.2,566.5,292.2,564.8,290.4z"/>
		<path class="st0" d="M305.5,135.6c-1.8-1.9-1.9-4.7,0-6.5c1.9-1.9,4.7-1.9,6.6,0c1.8,1.8,1.8,4.7,0,6.5
			C310.3,137.4,307.3,137.4,305.5,135.6z"/>
		<path class="st0" d="M318.5,116c1.9-1.8,4.7-1.6,6.5,0.3c1.8,1.9,1.7,4.8-0.2,6.5c-1.9,1.7-4.8,1.7-6.6-0.2
			C316.4,120.7,316.5,117.9,318.5,116z"/>
		<path class="st0" d="M565,181.1c1.9-1.8,4.7-1.6,6.5,0.3c1.8,1.9,1.7,4.8-0.2,6.5c-1.9,1.7-4.8,1.7-6.6-0.2
			C562.9,185.8,563,182.9,565,181.1z"/>
		<path class="st0" d="M292.8,148.4c-1.8-1.7-1.9-4.6-0.1-6.4c1.7-1.8,4.8-1.8,6.6,0c1.7,1.7,1.7,4.5,0,6.3
			C297.5,150.1,294.6,150.1,292.8,148.4z"/>
		<path class="st0" d="M442.2,77.9c1.8,1.8,1.7,4.6-0.1,6.4c-1.8,1.7-4.7,1.7-6.4-0.1c-1.7-1.8-1.7-4.7,0.1-6.4
			C437.5,76.1,440.5,76.1,442.2,77.9z"/>
		<path class="st0" d="M442.3,387.7c1.7,1.8,1.6,4.7-0.3,6.4c-1.8,1.7-4.7,1.5-6.4-0.3c-1.7-1.8-1.6-4.8,0.3-6.4
			C437.6,385.7,440.6,385.9,442.3,387.7z"/>
		<path class="st0" d="M292.7,329.7c-1.7-1.8-1.7-4.7,0.1-6.4c1.7-1.7,4.7-1.6,6.4,0.1c1.8,1.8,1.7,4.6-0.1,6.4
			C297.4,331.5,294.4,331.5,292.7,329.7z"/>
		<path class="st0" d="M409.1,394.8c-1.7-1.7-1.7-4.7,0-6.3c1.7-1.7,4.8-1.6,6.5,0.1c1.7,1.8,1.7,4.7-0.2,6.4
			C413.7,396.5,410.8,396.4,409.1,394.8z"/>
		<path class="st0" d="M332.2,369.2c-1.7-1.7-1.8-4.6-0.1-6.3c1.6-1.7,4.8-1.7,6.5-0.1c1.8,1.7,1.8,4.6,0,6.4
			C336.9,370.8,333.9,370.8,332.2,369.2z"/>
		<path class="st0" d="M409.2,83.3c-1.7-1.7-1.8-4.6-0.1-6.3c1.6-1.7,4.8-1.7,6.5-0.1c1.8,1.7,1.8,4.7,0,6.4
			C413.8,85,410.9,84.9,409.2,83.3z"/>
		<path class="st0" d="M332.2,108.9c-1.7-1.7-1.7-4.7,0-6.3c1.7-1.7,4.8-1.6,6.5,0c1.7,1.8,1.7,4.7-0.1,6.4
			C336.8,110.6,333.8,110.6,332.2,108.9z"/>
		<path class="st0" d="M273.4,272.2c1.8,1.8,1.8,4.5,0.1,6.2c-1.6,1.6-4.7,1.7-6.3,0.1c-1.7-1.6-1.7-4.6,0-6.3
			C268.7,270.5,271.8,270.5,273.4,272.2z"/>
		<path class="st0" d="M273.4,193.3c1.8,1.8,1.9,4.6,0.1,6.4c-1.6,1.6-4.6,1.6-6.2,0c-1.7-1.6-1.7-4.8,0-6.4
			C268.8,191.7,271.7,191.7,273.4,193.3z"/>
		<path class="st0" d="M577.9,245.7c1.6-1.6,4.3-1.6,6,0c1.6,1.6,1.7,4.3,0.1,6c-1.6,1.7-4.4,1.7-6.1,0
			C576.3,250,576.3,247.3,577.9,245.7z"/>
		<path class="st0" d="M578,219.9c1.6-1.6,4.4-1.5,6,0.1c1.6,1.7,1.6,4.3-0.1,6c-1.6,1.6-4.4,1.6-6.1-0.1
			C576.3,224.3,576.4,221.5,578,219.9z"/>
		<path class="st0" d="M545.4,134.4c-1.6,1.6-4.4,1.5-6-0.1c-1.7-1.6-1.6-4.4,0.1-6.1c1.6-1.5,4.3-1.5,5.8,0.1
			C547.1,130,547.1,132.8,545.4,134.4z"/>
		<path class="st0" d="M545.4,343.4c-1.6,1.6-4.4,1.5-6-0.1c-1.6-1.6-1.6-4.4,0.2-6.1c1.6-1.5,4.3-1.5,5.8,0.1
			C547.1,338.9,547.1,341.7,545.4,343.4z"/>
		<path class="st0" d="M526.6,350.1c1.6-1.6,4.3-1.6,6,0c1.6,1.6,1.7,4.3,0.1,6c-1.6,1.7-4.4,1.7-6.1,0
			C525,354.5,525,351.8,526.6,350.1z"/>
		<path class="st0" d="M526.6,121.5c-1.6-1.6-1.6-4.3,0-6c1.6-1.6,4.3-1.6,6,0c1.7,1.7,1.7,4.4,0,6.1
			C531,123.2,528.2,123.1,526.6,121.5z"/>
		<path class="st0" d="M286.1,160.9c-1.6,1.6-4.4,1.5-6-0.1c-1.6-1.6-1.5-4.4,0.1-6c1.5-1.5,4.3-1.5,5.8,0.1
			C287.7,156.6,287.7,159.3,286.1,160.9z"/>
		<path class="st0" d="M383.7,394.5c-1.6-1.6-1.5-4.3,0.1-6c1.5-1.5,4.3-1.5,5.8,0c1.6,1.6,1.6,4.4,0,6
			C388.1,396.1,385.3,396.1,383.7,394.5z"/>
		<path class="st0" d="M280.1,316.6c-1.5-1.6-1.4-4.4,0.2-6c1.6-1.5,4.3-1.4,5.8,0.2c1.6,1.6,1.5,4.4-0.1,6
			C284.5,318.3,281.6,318.2,280.1,316.6z"/>
		<path class="st0" d="M389.7,83c-1.5,1.6-4.4,1.6-6,0c-1.5-1.5-1.5-4.3,0.1-5.9c1.4-1.5,4.3-1.5,5.9,0
			C391.2,78.6,391.2,81.4,389.7,83z"/>
		<path class="st0" d="M553.1,147.9c-1.4-1.5-1.3-4.4,0.4-5.9c1.6-1.5,4.3-1.4,5.8,0.3c1.4,1.6,1.4,4.3-0.2,5.7
			C557.5,149.6,554.6,149.5,553.1,147.9z"/>
		<path class="st0" d="M467.6,393.6c-1.5,1.6-4.4,1.6-6,0c-1.5-1.5-1.5-4.3,0.1-5.9c1.5-1.5,4.3-1.5,5.9,0
			C469,389.3,469.1,392,467.6,393.6z"/>
		<path class="st0" d="M461.6,78c1.5-1.5,4.3-1.5,5.9,0c1.6,1.5,1.6,4.3,0.1,5.9c-1.5,1.6-4.4,1.6-6,0
			C460.1,82.4,460.1,79.6,461.6,78z"/>
		<path class="st0" d="M553.1,329.3c-1.4-1.5-1.3-4.4,0.3-5.9c1.6-1.5,4.2-1.4,5.7,0.2c1.6,1.5,1.6,4.4,0,5.9
			C557.5,331,554.6,330.9,553.1,329.3z"/>
		<path class="st0" d="M513.8,108.6c-1.5-1.4-1.5-4.3,0.1-5.9c1.4-1.5,4.3-1.5,5.8,0c1.5,1.5,1.5,4.2,0.1,5.7
			C518.4,110.1,515.4,110.2,513.8,108.6z"/>
		<path class="st0" d="M345.1,95.7c-1.4-1.5-1.3-4.4,0.2-5.9c1.5-1.4,4.4-1.3,5.8,0.2c1.4,1.6,1.4,4.3-0.1,5.7
			C349.6,97.3,346.6,97.3,345.1,95.7z"/>
		<path class="st0" d="M345.2,381.6c-1.5-1.5-1.4-4.3,0.2-5.9c1.5-1.5,4.4-1.4,5.8,0.2c1.4,1.5,1.4,4.2,0,5.7
			C349.7,383.2,346.7,383.2,345.2,381.6z"/>
		<path class="st0" d="M519.8,363.1c1.5,1.6,1.4,4.4-0.2,5.9c-1.6,1.4-4.4,1.4-5.9-0.2c-1.4-1.5-1.3-4.4,0.2-5.9
			C515.5,361.5,518.4,361.6,519.8,363.1z"/>
		<path class="st0" d="M583.9,194.5c1.6,1.6,1.6,4-0.1,5.6c-1.6,1.5-4.3,1.4-5.8-0.2c-1.4-1.4-1.3-4.1,0.2-5.6
			C579.7,192.8,582.1,192.8,583.9,194.5z"/>
		<path class="st0" d="M583.8,277.1c-1.6,1.5-4.3,1.5-5.8-0.1c-1.4-1.5-1.3-4.3,0.2-5.7c1.7-1.6,4.1-1.4,5.8,0.3
			C585.4,273.2,585.4,275.6,583.8,277.1z"/>
		<path class="st0" d="M501.2,381.4c-1.4-1.5-1.4-4,0.1-5.4c1.5-1.5,4.2-1.4,5.7,0.2c1.3,1.4,1.2,3.9-0.2,5.3
			C505.3,383,502.6,382.9,501.2,381.4z"/>
		<path class="st0" d="M501.2,95.6c-1.5-1.5-1.5-4.1,0-5.6c1.5-1.4,4.1-1.4,5.6,0.2c1.3,1.4,1.3,3.9,0,5.3
			C505.4,97,502.7,97.1,501.2,95.6z"/>
		<path class="st0" d="M260.2,212c-1.5,1.4-4.2,1.3-5.6-0.1c-1.4-1.5-1.3-4,0.2-5.4c1.5-1.4,4.1-1.3,5.4,0.1
			C261.7,208.1,261.7,210.6,260.2,212z"/>
		<path class="st0" d="M358.2,394.2c-1.4-1.5-1.3-4,0.2-5.4s4-1.4,5.4,0c1.4,1.5,1.4,4,0,5.4C362.4,395.7,359.6,395.7,358.2,394.2z"
			/>
		<path class="st0" d="M254.7,259.7c1.4-1.5,4-1.5,5.4-0.1c1.5,1.5,1.6,4.1,0.1,5.5c-1.4,1.4-4,1.4-5.5,0
			C253.3,263.7,253.3,261.2,254.7,259.7z"/>
		<path class="st0" d="M267.6,168c1.4-1.4,4-1.4,5.4,0.1c1.4,1.4,1.4,4.1,0,5.4c-1.4,1.4-4.1,1.4-5.5,0
			C266.2,172.1,266.2,169.5,267.6,168z"/>
		<path class="st0" d="M267.6,303.6c-1.4-1.4-1.3-4,0.1-5.4c1.4-1.4,4-1.3,5.4,0.1c1.4,1.4,1.3,4.1-0.1,5.4
			C271.6,305,268.9,305,267.6,303.6z"/>
		<path class="st0" d="M566.3,316.4c-1.4-1.4-1.4-4,0-5.4c1.3-1.4,4-1.4,5.4,0c1.4,1.4,1.4,4.1,0,5.4
			C570.3,317.8,567.7,317.8,566.3,316.4z"/>
		<path class="st0" d="M358.3,82.7c-1.4-1.4-1.3-4.1,0.1-5.4c1.4-1.3,4-1.4,5.3-0.1c1.5,1.4,1.5,4,0.1,5.5
			C362.4,84.2,359.7,84.1,358.3,82.7z"/>
		<path class="st0" d="M566.5,155.1c1.4-1.4,4-1.2,5.4,0.2c1.3,1.4,1.2,3.9-0.2,5.3c-1.5,1.4-4.1,1.3-5.4-0.1
			C564.9,159.1,565,156.5,566.5,155.1z"/>
		<path class="st0" d="M253.9,238.5c-1.4-1.4-1.3-4,0.2-5.4c1.4-1.4,3.9-1.3,5.4,0.2c1.4,1.4,1.3,3.9-0.1,5.3
			C257.8,239.9,255.2,239.9,253.9,238.5z"/>
		<path class="st0" d="M427.7,69.9c-1.4,1.4-3.8,1.3-5.2-0.1c-1.4-1.4-1.4-3.8,0.1-5.2c1.5-1.5,3.8-1.5,5.2,0
			C429.3,66.2,429.3,68.3,427.7,69.9z"/>
		<path class="st0" d="M422.6,401.8c1.5-1.5,3.8-1.5,5.2,0c1.6,1.6,1.5,3.7-0.1,5.3c-1.4,1.4-3.8,1.4-5.2-0.1
			C421.1,405.6,421.1,403.3,422.6,401.8z"/>
		<path class="st0" d="M397,401.9c1.4-1.4,3.7-1.4,5.1,0.1c1.3,1.4,1.3,3.6,0,5c-1.3,1.4-3.8,1.4-5.1,0
			C395.6,405.5,395.6,403.3,397,401.9z"/>
		<path class="st0" d="M397,64.7c1.4-1.4,3.7-1.4,5.1,0c1.4,1.4,1.4,3.7,0,5.1c-1.3,1.3-3.7,1.3-5,0C395.6,68.4,395.6,66.1,397,64.7
			z"/>
		<path class="st0" d="M488.6,389.1c1.4-1.4,3.7-1.4,5.1,0c1.4,1.4,1.4,3.7,0,5.1c-1.3,1.3-3.7,1.3-5,0
			C487.2,392.8,487.2,390.5,488.6,389.1z"/>
		<path class="st0" d="M449.3,65.5c1.4-1.4,3.7-1.3,5.1,0.1c1.3,1.4,1.3,3.6-0.1,4.9c-1.3,1.3-3.8,1.3-5.1,0
			C447.8,69.2,447.8,66.9,449.3,65.5z"/>
		<path class="st0" d="M449.2,401c1.4-1.4,3.7-1.4,5.1,0c1.4,1.4,1.4,3.7-0.1,5.1c-1.3,1.3-3.7,1.3-5,0
			C447.8,404.7,447.8,402.4,449.2,401z"/>
		<path class="st0" d="M488.6,77.6c1.4-1.4,3.6-1.5,5.1-0.1c1.4,1.4,1.4,3.6,0,5.1c-1.3,1.3-3.7,1.3-5,0.1
			C487.2,81.3,487.2,79,488.6,77.6z"/>
		<path class="st0" d="M298.3,349.8c1.4,1.3,1.4,3.4,0.1,4.8c-1.2,1.2-3.6,1.3-4.9,0.1c-1.3-1.2-1.4-3.5-0.1-4.8
			C294.8,348.5,296.9,348.4,298.3,349.8z"/>
		<path class="st0" d="M596.2,233.5c1.3,1.4,1.3,3.5-0.1,4.8c-1.3,1.2-3.7,1.2-4.9-0.1c-1.3-1.3-1.3-3.5,0-4.8
			C592.7,232.1,594.8,232.1,596.2,233.5z"/>
		<path class="st0" d="M298.4,121.9c-1.2,1.2-3.6,1.2-4.9,0c-1.3-1.3-1.3-3.5,0-4.8c1.4-1.4,3.5-1.4,4.9,0
			C299.7,118.5,299.7,120.6,298.4,121.9z"/>
		<path class="st0" d="M306.4,362.7c1.4-1.4,3.4-1.4,4.7,0c1.3,1.3,1.3,3.3,0,4.6c-1.3,1.3-3.4,1.3-4.8,0
			C305.1,366,305.1,364.1,306.4,362.7z"/>
		<path class="st0" d="M579.4,298.6c1.4-1.4,3.3-1.4,4.7-0.1c1.3,1.3,1.3,3.3,0.1,4.6s-3.4,1.4-4.8,0
			C578.2,301.9,578.1,299.9,579.4,298.6z"/>
		<path class="st0" d="M579.4,168.5c1.4-1.4,3.3-1.4,4.7-0.1c1.3,1.3,1.4,3.3,0.1,4.6s-3.4,1.4-4.8,0.1
			C578.2,171.8,578.1,169.8,579.4,168.5z"/>
		<path class="st0" d="M306.4,104.4c1.4-1.4,3.3-1.5,4.7-0.1c1.3,1.3,1.4,3.3,0.1,4.6s-3.4,1.4-4.8,0.1
			C305.1,107.7,305.1,105.7,306.4,104.4z"/>
		<path class="st0" d="M591.5,263.7c-1.2-1.2-1.2-3.2,0-4.5c1.2-1.3,3.3-1.3,4.6,0c1.2,1.2,1.2,3.3,0.1,4.5
			C595,264.9,592.7,265,591.5,263.7z"/>
		<path class="st0" d="M591.4,212.4c-1.2-1.2-1.2-3.2,0-4.5c1.2-1.3,3.3-1.3,4.6,0c1.2,1.2,1.2,3.3,0,4.5
			C594.9,213.6,592.7,213.6,591.4,212.4z"/>
		<path class="st0" d="M259.8,290.3c-1.2,1.2-3.5,1.2-4.7,0c-1.2-1.2-1.2-3.3,0-4.5c1.2-1.2,3.2-1.3,4.5-0.1
			C261,286.8,261,289.1,259.8,290.3z"/>
		<path class="st0" d="M255.2,185.8c-1.2-1.2-1.2-3.2,0-4.5c1.2-1.3,3.3-1.3,4.6,0c1.2,1.2,1.2,3.3,0,4.5
			C258.7,187.1,256.4,187.1,255.2,185.8z"/>
		<path class="st0" d="M285.3,341.7c-1.2,1.1-3.5,1-4.5-0.2s-1-3.3,0.1-4.4c1.2-1.2,3.4-1.1,4.5,0.1
			C286.6,338.3,286.5,340.6,285.3,341.7z"/>
		<path class="st0" d="M285.5,134.5c-1.1,1.2-3.3,1.2-4.5,0.1c-1.2-1.1-1.2-3.2-0.1-4.4c1.1-1.3,3.4-1.3,4.7-0.1
			C286.5,131.2,286.6,133.3,285.5,134.5z"/>
		<path class="st0" d="M320.4,381c-1.2-1.2-1.2-3.2,0-4.4c1.2-1.2,3.3-1.2,4.5,0c1.1,1.1,1.1,3.3-0.1,4.4
			C323.6,382.1,321.5,382.1,320.4,381z"/>
		<path class="st0" d="M324.7,95.1c-1.2,1.1-3.3,1.1-4.4-0.1c-1.2-1.2-1.2-3.3,0.1-4.5c1.2-1.1,3.3-1,4.4,0.2
			C325.9,91.9,325.9,94.1,324.7,95.1z"/>
		<path class="st0" d="M371.7,69.4c-1.2-1.2-1.3-3.2,0-4.5c1-1,3.1-0.9,4.3,0.1c1.2,1.1,1.2,3.2,0.1,4.3
			C375,70.5,372.9,70.5,371.7,69.4z"/>
		<path class="st0" d="M376,406.6c-1.2,1.1-3.2,1.1-4.3-0.1c-1.2-1.2-1.2-3,0-4.2c1.1-1.2,3.2-1.2,4.4,0
			C377.2,403.3,377.2,405.4,376,406.6z"/>
		<path class="st0" d="M553.3,351c1.1-1.1,2.8-1.2,4,0c1.2,1.1,1.3,3,0.1,4.2c-1.1,1.1-3.1,1.2-4.2,0
			C552.1,354,552.1,352.2,553.3,351z"/>
		<path class="st0" d="M272.5,328.5c-1.1,1.1-3.1,1.2-4.2,0.1c-1.2-1.1-1.2-3,0-4.2c1.1-1.2,2.8-1.2,4-0.1
			C273.6,325.5,273.6,327.4,272.5,328.5z"/>
		<path class="st0" d="M272.4,147.2c-1.1,1.1-3.1,1.1-4.2-0.1c-1.1-1.2-1-3,0.2-4.2c1.2-1.1,2.9-1.1,4,0.1S273.6,146,272.4,147.2z"
			/>
		<path class="st0" d="M540.4,368c-1.1-1.1-1.1-3,0.1-4.2c1.1-1.1,2.9-1.1,4.1,0c1.2,1.1,1.2,3,0.1,4.2
			C543.5,369.1,541.5,369.1,540.4,368z"/>
		<path class="st0" d="M553.2,120.6c-1.2-1.1-1.1-3,0-4.2c1.1-1.2,2.8-1.2,4-0.1c1.2,1.1,1.3,3,0.2,4.2
			C556.4,121.7,554.4,121.7,553.2,120.6z"/>
		<path class="st0" d="M544.6,107.7c-1.1,1.1-3.1,1.1-4.2,0c-1.1-1.1-1.1-3,0.1-4.2c1.1-1.1,2.9-1.1,4.1,0
			C545.7,104.7,545.7,106.6,544.6,107.7z"/>
		<path class="st0" d="M476.3,406.5c-1.1-1.1-1.1-3.1,0.1-4.2c1.1-1.1,2.9-1,4.1,0.1c1.1,1.1,1.1,3,0,4.1
			C479.3,407.5,477.3,407.5,476.3,406.5z"/>
		<path class="st0" d="M476.4,65.1c1.1-1.1,2.9-1,4.1,0.1c1.1,1.1,1.1,2.9,0,4.1c-1.1,1-3.1,1.1-4.1,0
			C475.2,68.2,475.2,66.2,476.4,65.1z"/>
		<path class="st0" d="M531.6,380.8c-1.1,1.1-3.1,1-4.1-0.1c-1-1.1-1-2.9,0.1-4c1.1-1.2,2.8-1.2,4.1,0
			C532.8,377.8,532.8,379.7,531.6,380.8z"/>
		<path class="st0" d="M527.6,90.9c1.1-1.2,2.8-1.1,4.1,0c1.1,1.1,1.1,2.9,0,4.1c-1,1-2.9,1-4,0C526.6,93.9,526.5,92,527.6,90.9z"/>
		<path class="st0" d="M333.4,82.1c-1.1-1.1-1.1-3,0-4.1c1.1-1.1,2.9-1.1,4.1,0.1c1.1,1.1,1.1,2.8,0,3.9
			C336.4,83.1,334.5,83.2,333.4,82.1z"/>
		<path class="st0" d="M337.4,393.6c-1.1,1.1-3.1,1-4.1-0.1c-1-1.1-1-2.9,0.1-4c1.1-1.2,2.8-1.2,4.1,0
			C338.5,390.7,338.5,392.5,337.4,393.6z"/>
		<path class="st0" d="M571,337.6c1.1,1.1,1.1,2.8-0.1,3.9c-1,0.9-2.8,0.9-3.8-0.1c-1.1-1.1-1.1-2.8,0.1-3.9
			C568.3,336.3,569.8,336.3,571,337.6z"/>
		<path class="st0" d="M245.7,225c-1,1-2.9,0.9-3.9-0.2c-1-1.1-0.9-2.7,0.1-3.8c1.1-1.2,2.6-1.1,3.8,0.1
			C246.8,222.3,246.8,223.9,245.7,225z"/>
		<path class="st0" d="M245.7,246.8c1.1,1.1,1.2,2.7,0,3.9c-1,1-2.9,1-3.9-0.1c-1-1-1-2.7,0-3.8C243,245.6,244.4,245.6,245.7,246.8z
			"/>
		<path class="st0" d="M571,130.5c1.1,1.1,1.1,2.8-0.1,3.9c-1,0.9-2.8,0.9-3.8-0.1c-1.1-1.1-1.1-2.8,0-3.9
			C568.3,129.2,569.8,129.3,571,130.5z"/>
		<path class="st0" d="M596.5,181.8c1.1,1.1,1.1,2.6,0,3.7c-1,1-2.7,1-3.7-0.1c-1-1-0.9-2.5,0.1-3.6
			C593.9,180.6,595.4,180.6,596.5,181.8z"/>
		<path class="st0" d="M592.8,289.9c-1.1-1-1-2.6,0.1-3.7c1-0.9,2.6-0.9,3.6,0.1c1,1,1,2.5,0,3.6
			C595.5,290.9,593.9,290.9,592.8,289.9z"/>
		<path class="st0" d="M242.8,273.5c0.8-0.9,2.6-1,3.6-0.1c1,0.8,1,2.5,0.2,3.5c-0.8,0.9-2.6,1-3.5,0.1
			C242,276.3,241.9,274.5,242.8,273.5z"/>
		<path class="st0" d="M515,393.4c-0.9-0.9-0.9-2.7,0-3.5s2.7-0.8,3.6,0c0.9,0.9,0.9,2.6,0,3.5C517.7,394.3,515.9,394.2,515,393.4z"
			/>
		<path class="st0" d="M255.7,159.8c-0.9-0.9-1-2.6-0.1-3.5c0.9-0.9,2.6-0.9,3.6-0.1c0.9,0.9,1,2.6,0.1,3.5
			C258.5,160.6,256.7,160.6,255.7,159.8z"/>
		<path class="st0" d="M259.2,315.6c-0.9,0.8-2.7,0.7-3.6-0.2c-0.9-0.9-0.8-2.7,0.2-3.5c1-0.8,2.7-0.8,3.6,0.2
			C260.2,313,260.1,314.7,259.2,315.6z"/>
		<path class="st0" d="M242.9,194.6c0.9-0.9,2.7-0.8,3.6,0.1c0.9,0.9,0.8,2.6-0.1,3.5c-0.8,0.8-2.7,0.8-3.5-0.1
			C242,197.3,242,195.5,242.9,194.6z"/>
		<path class="st0" d="M436.2,56.2c-0.9-0.9-0.9-2.7,0-3.5s2.7-0.8,3.6,0c0.9,0.9,0.9,2.6,0,3.5C438.9,57.1,437.1,57,436.2,56.2z"/>
		<path class="st0" d="M439.7,419.1c-0.8,0.9-2.7,0.8-3.6-0.1c-0.9-0.9-0.9-2.7,0.1-3.5c0.9-0.9,2.7-0.8,3.6,0.1
			C440.7,416.4,440.7,418.2,439.7,419.1z"/>
		<path class="st0" d="M518.5,81.9c-0.8,0.9-2.7,0.8-3.6-0.1c-0.9-0.9-0.9-2.7,0.1-3.5c0.9-0.9,2.7-0.8,3.6,0.1
			C519.5,79.3,519.5,81,518.5,81.9z"/>
		<path class="st0" d="M410.6,56.1c-0.9-0.9-0.8-2.7,0.1-3.5c0.9-0.9,2.7-0.8,3.5,0.1c0.9,1,0.8,2.6-0.2,3.5
			C413.1,57,411.4,57,410.6,56.1z"/>
		<path class="st0" d="M410.6,419c-0.9-0.9-0.8-2.7,0.1-3.5c0.9-0.9,2.7-0.8,3.5,0.1c0.9,1,0.8,2.6-0.2,3.5
			C413.1,419.9,411.4,419.8,410.6,419z"/>
		<path class="st0" d="M580.2,143.4c0.9-0.9,2.5-0.9,3.4-0.1c0.9,0.8,0.9,2.6,0,3.5c-0.9,0.9-2.6,0.9-3.5-0.1
			C579.2,145.8,579.3,144.3,580.2,143.4z"/>
		<path class="st0" d="M580.1,328.2c-0.9-0.9-0.9-2.6,0.1-3.5c0.9-0.8,2.6-0.8,3.4,0c0.8,0.9,0.8,2.7-0.1,3.5
			C582.7,329.1,581,329.1,580.1,328.2z"/>
		<path class="st0" d="M346.6,406.1c-0.9-0.9-0.9-2.4,0-3.3c0.8-0.9,2.5-0.9,3.3,0c0.8,0.8,0.8,2.5-0.1,3.4
			C349.1,406.9,347.4,406.9,346.6,406.1z"/>
		<path class="st0" d="M605,221.3c0.9-0.9,2.5-0.8,3.3,0c0.8,0.9,0.7,2.6-0.1,3.4c-0.8,0.7-2.5,0.7-3.2-0.1
			C604.1,223.8,604.1,222.2,605,221.3z"/>
		<path class="st0" d="M346.6,68.9c-0.9-0.9-0.9-2.4,0-3.3c0.9-0.9,2.5-0.8,3.3,0.1c0.8,0.8,0.7,2.6-0.1,3.4
			C349,69.7,347.3,69.6,346.6,68.9z"/>
		<path class="st0" d="M605,246.9c0.9-0.8,2.5-0.8,3.3,0.1c0.8,0.9,0.7,2.6-0.2,3.4c-0.8,0.7-2.5,0.6-3.2-0.2
			C604.1,249.4,604.1,247.8,605,246.9z"/>
		<path class="st0" d="M385.1,418.9c-0.8-0.8-0.8-2.4,0-3.2c0.8-0.8,2.5-0.8,3.2,0c0.7,0.8,0.7,2.5-0.1,3.3
			C387.5,419.6,385.8,419.6,385.1,418.9z"/>
		<path class="st0" d="M385.1,56c-0.8-0.8-0.8-2.5,0.1-3.2c0.8-0.7,2.6-0.7,3.2,0.1c0.7,0.8,0.6,2.6-0.2,3.3
			C387.4,56.8,385.7,56.7,385.1,56z"/>
		<path class="st0" d="M464.2,415.4c0.9,0.2,2.2,0,2.7,0.6c0.4,0.6,0.1,1.8,0,2.8c-0.9,0-2.2,0.3-2.8-0.2c-0.5-0.4-0.3-1.7-0.5-2.6
			C463.9,415.7,464,415.5,464.2,415.4z"/>
		<path class="st0" d="M463.6,55.7c0.2-0.9,0.1-2.2,0.6-2.6c0.6-0.4,1.8-0.1,2.8-0.1c0,1,0.3,2.2-0.2,2.8c-0.4,0.5-1.8,0.3-2.7,0.4
			C463.9,56,463.8,55.9,463.6,55.7z"/>
		<path class="st0" d="M502.6,65.4c0.9,0.1,2.2-0.2,2.7,0.4c0.5,0.6,0.2,1.8,0.2,2.8c-0.9,0.1-2.2,0.5-2.8,0
			c-0.6-0.4-0.5-1.7-0.7-2.6C502.2,65.8,502.4,65.6,502.6,65.4z"/>
		<path class="st0" d="M502.1,405.7c0.2-0.9,0.1-2.2,0.6-2.6c0.6-0.5,1.8-0.1,2.8-0.1c0,1,0.3,2.2-0.2,2.8c-0.4,0.5-1.8,0.3-2.7,0.4
			C502.4,406.1,502.3,405.9,502.1,405.7z"/>
		<path class="st0" d="M605.9,197.6c0.1-0.8,0.1-1.7,0.5-2.4c0.6-0.9,1.8-0.9,2.3-0.1c0.4,0.6,0.4,1.9,0,2.4
			c-0.3,0.5-1.5,0.4-2.3,0.5C606.2,197.9,606.1,197.8,605.9,197.6z"/>
		<path class="st0" d="M605.9,276.4c0.1-0.8,0-1.7,0.4-2.4c0.6-0.9,1.8-0.9,2.3-0.1c0.4,0.6,0.4,1.9,0.1,2.4
			c-0.3,0.5-1.5,0.4-2.3,0.6C606.3,276.7,606.1,276.6,605.9,276.4z"/>
		<path class="st0" d="M245.8,302.6c-0.8-0.2-1.8-0.1-2.3-0.6c-0.8-0.7-0.7-1.7,0.1-2.4c0.8-0.7,1.8-0.7,2.4,0.1
			c0.4,0.6,0.3,1.6,0.3,2.4C246.1,302.3,245.9,302.4,245.8,302.6z"/>
		<path class="st0" d="M243,171.8c0.2-0.8,0.1-1.8,0.6-2.3c0.6-0.8,1.8-0.8,2.3,0.1c0.4,0.6,0.3,1.9-0.1,2.4
			c-0.4,0.5-1.5,0.3-2.3,0.4C243.3,172.2,243.1,172,243,171.8z"/>
		<path class="st0" d="M593,314.8c0.2-0.8,0.1-1.7,0.5-2.4c0.6-0.9,1.8-0.9,2.3,0c0.4,0.6,0.4,1.9,0,2.4c-0.3,0.5-1.5,0.4-2.3,0.5
			C593.4,315.2,593.2,315,593,314.8z"/>
		<path class="st0" d="M595.9,159.6c-0.8-0.1-1.8-0.1-2.4-0.5c-0.9-0.6-0.8-1.6,0-2.4c0.8-0.8,1.8-0.8,2.4,0
			c0.4,0.6,0.3,1.6,0.5,2.4C596.2,159.2,596.1,159.4,595.9,159.6z"/>
		<path class="st0" d="M294.4,376.6c1.2-0.8,2-0.7,2.7,0c0.7,0.7,0.8,1.5,0,2.3c-0.8,0.7-1.8,0.9-2.4,0
			C294.4,378.4,294.6,377.4,294.4,376.6z"/>
		<path class="st0" d="M281.6,363.9c1.2-0.9,2-0.8,2.7-0.1c0.8,0.8,0.9,1.8,0,2.3c-0.6,0.4-1.8,0.4-2.2,0
			C281.6,365.7,281.7,364.7,281.6,363.9z"/>
		<path class="st0" d="M294.4,92.7c1.2-0.8,2-0.9,2.7-0.1c0.8,0.8,0.9,1.6,0.1,2.4c-0.8,0.7-1.8,0.8-2.4-0.1
			C294.4,94.3,294.5,93.4,294.4,92.7z"/>
		<path class="st0" d="M281.6,105.4c1.2-0.8,2-0.7,2.7,0s0.8,1.6,0,2.3c-0.8,0.7-1.8,0.9-2.4,0C281.6,107.1,281.7,106.2,281.6,105.4
			z"/>
		<path class="st0" d="M362.8,417.7c-0.7,0.4-1.4,1-2.1,1c-0.4,0-1.2-0.9-1.2-1.4c0-0.5,0.8-1.5,1.2-1.4c0.8,0.1,1.4,0.7,2.2,1.1
			C362.9,417.2,362.8,417.4,362.8,417.7z"/>
		<path class="st0" d="M362.9,54.7c-0.7,0.4-1.4,1.1-2.1,1.2c-0.4,0.1-1.2-0.9-1.2-1.4s0.8-1.5,1.2-1.4c0.8,0.1,1.4,0.7,2.2,1.1
			C362.9,54.3,362.9,54.5,362.9,54.7z"/>
		<path class="st0" d="M309.5,389.6c0.8,0.8,1.3,1.3,2.1,2.1c-0.7,0.5-1.3,1.2-1.9,1.2c-0.5,0-1.4-0.8-1.4-1.2
			C308.3,391.1,309,390.5,309.5,389.6z"/>
		<path class="st0" d="M270.2,117.6c0.7,0.7,1.2,1.2,2,2c-0.7,0.5-1.3,1.1-2,1.3c-0.3,0.1-1.3-0.9-1.3-1.2
			C269,119,269.7,118.4,270.2,117.6z"/>
		<path class="st0" d="M230.9,237.6c-1.8-1.7-1.8-2,0.1-3.4c0.5,0.5,1.1,1.1,1.7,1.7C232.1,236.4,231.5,237,230.9,237.6z"/>
		<path class="st0" d="M272.3,352c-0.8,0.8-1.4,1.4-2.1,2.1c-0.5-0.8-1.1-1.4-1.3-2.2c-0.1-0.3,0.8-1.2,1.1-1.2
			C270.7,350.9,271.4,351.5,272.3,352z"/>
		<path class="st0" d="M309.5,78.1c0.8,0.8,1.3,1.3,2.1,2.1c-0.8,0.5-1.4,1.1-2.2,1.2c-0.3,0.1-1.2-0.8-1.2-1.1
			C308.5,79.6,309,79,309.5,78.1z"/>
		<path class="st0" d="M231.6,262.5c-0.4-0.9-0.8-1.6-1.1-2.3c0.4,0,0.9-0.1,1,0.1C231.9,260.8,233.2,261.2,231.6,262.5z"/>
		<path class="st0" d="M567.9,107.6c-0.5-0.9-0.9-1.5-1.2-2.2c0.3,0,0.8-0.2,0.9,0C568,105.9,569.4,106.2,567.9,107.6z"/>
		<path class="st0" d="M555,94.7c-0.3-0.8-0.7-1.5-1-2.2c0.4,0.1,0.9,0.1,1.2,0.4C555.7,93.3,556.5,93.8,555,94.7z"/>
		<path class="st0" d="M492.9,417.4c-1.3,0-2.3,0.1-3.4,0.1C490.8,415.6,491.1,415.6,492.9,417.4z"/>
		<path class="st0" d="M427,430.4c-1.3-0.1-2.2-0.2-3.2-0.3C424.7,428.4,425.3,428.4,427,430.4z"/>
		<path class="st0" d="M426.8,41.5c-1.4,1.5-2.1,1.5-3.2-0.2C424.7,41.4,425.7,41.4,426.8,41.5z"/>
		<path class="st0" d="M489.4,54.1c1.3,0.1,2.2,0.1,3.3,0.2C491.5,55.8,490.8,55.8,489.4,54.1z"/>
		<path class="st0" d="M403.5,257.5c-0.9,3.2-1,6,0.7,9.1c-3.7-1.6-7-1.6-10.3,0.5c1.8-3.2,2.3-6.5,0.4-10
			C397.5,258.3,400.3,258.5,403.5,257.5z"/>
		<path class="st0" d="M404.3,204.9c-1.8,3.2-1.8,6-1,8.6c-2.9,0.1-5.8,0.2-8.6,0.3c1.5-2.9,1.1-6-0.9-9.4
			C397.3,206.5,400.6,206.8,404.3,204.9z"/>
		<path class="st0" d="M443.4,217.6c-1.4,3.4-1.3,6.4,0.2,9.4c-1.4-0.5-2.7-1-4.1-1.2c-1.3-0.2-2.8-0.1-3.8-0.1
			c-0.4-2.6-0.8-5.3-1.2-7.9C437.1,218.8,440.1,219,443.4,217.6z"/>
		<path class="st0" d="M434.6,254c0.4-2.7,0.8-5.3,1.2-8c2.5,0.3,5.3,0.2,8.1-1.7c-1.7,3.3-1.8,6.2-0.5,9.6
			C440.1,252.7,437.2,252.7,434.6,254z"/>
		<path class="st0" d="M402,232.5c0,2.1,0,4.3,0.1,6.6c-2,0.1-4.4,0.3-6.9,0.5c1-2.4,1.1-5-0.1-7.5
			C397.5,232.2,399.9,232.4,402,232.5z"/>
		<path class="st0" d="M409,246c1.9,0.1,4,0.2,5.8,0.2c0.1,1.9,0.2,3.8,0.3,5.8c-2,0.1-4.2,0.2-6.4,0.2
			C408.8,250.3,408.9,248.1,409,246z"/>
		<path class="st0" d="M408.8,219.4c2.1,0.1,4.3,0.1,6.4,0.2c-0.1,1.8-0.3,3.8-0.4,5.7c-1.9,0.1-3.9,0.1-5.8,0.2
			C408.9,223.4,408.8,221.4,408.8,219.4z"/>
		<path class="st0" d="M427.6,238.1c-1.5,0-3.1,0-4.5,0c0-1.4-0.1-3-0.1-4.7c1.6,0.1,3.2,0.2,4.6,0.3
			C427.6,235,427.6,236.6,427.6,238.1z"/>
	</g>
</g>
</svg>
